# xmcd
#
# Track frame offsets: 
#        150
#        15250
#        39980
#        58585
#        81172
#        106545
#        129140
#        148402
#        164710
#        195735
#
# Disc length: 2928 seconds
#
# Revision: 0
# Processed by: cddbd v1.5.2PL0 Copyright (c) Steve Scherf et al.
# Submitted via: ExactAudioCopy v1.0b3
#
DISCID=7b0b6e0a
DTITLE=Nocturnal Rites - In A Time Of Blood And Fire
DYEAR=1997
DGENRE=Metal
TTITLE0=Sword Of Steel
TTITLE1=Skyline Flame
TTITLE2=Black Death
TTITLE3=In A Time Of Blood And Fire
TTITLE4=Dawnspell
TTITLE5=Lay Of Ennui
TTITLE6=Winds Of Death
TTITLE7=Rest In Peace
TTITLE8=Dragonisle
TTITLE9=Lay Of Ennui (Demo)
EXTD=
EXTT0=
EXTT1=
EXTT2=
EXTT3=
EXTT4=
EXTT5=
EXTT6=
EXTT7=
EXTT8=
EXTT9=
PLAYORDER=
